<mxfile host="65bd71144e">
    <diagram id="RX89pQvFwupSxhNrEInA" name="Node">
        <mxGraphModel dx="1691" dy="836" grid="1" gridSize="10" guides="1" tooltips="1" connect="1" arrows="1" fold="1" page="1" pageScale="1" pageWidth="1169" pageHeight="827" math="0" shadow="0">
            <root>
                <mxCell id="0"/>
                <mxCell id="1" parent="0"/>
                <mxCell id="G4ceK2faMUJjRU8Zbu4r-9" style="edgeStyle=orthogonalEdgeStyle;rounded=0;orthogonalLoop=1;jettySize=auto;html=1;exitX=0.5;exitY=1;exitDx=0;exitDy=0;startArrow=block;startFill=1;endArrow=none;endFill=0;" edge="1" parent="1" source="2">
                    <mxGeometry relative="1" as="geometry">
                        <mxPoint x="380" y="180" as="targetPoint"/>
                    </mxGeometry>
                </mxCell>
                <mxCell id="2" value="Node" style="rounded=0;whiteSpace=wrap;html=1;" parent="1" vertex="1">
                    <mxGeometry x="320" y="70" width="120" height="50" as="geometry"/>
                </mxCell>
                <mxCell id="G4ceK2faMUJjRU8Zbu4r-7" style="edgeStyle=orthogonalEdgeStyle;rounded=0;orthogonalLoop=1;jettySize=auto;html=1;exitX=0.5;exitY=0;exitDx=0;exitDy=0;startArrow=none;startFill=0;endArrow=none;endFill=0;" edge="1" parent="1" source="3">
                    <mxGeometry relative="1" as="geometry">
                        <mxPoint x="300" y="180" as="targetPoint"/>
                    </mxGeometry>
                </mxCell>
                <mxCell id="3" value="Busstop" style="rounded=0;whiteSpace=wrap;html=1;" parent="1" vertex="1">
                    <mxGeometry x="240" y="200" width="120" height="50" as="geometry"/>
                </mxCell>
                <mxCell id="G4ceK2faMUJjRU8Zbu4r-6" style="edgeStyle=orthogonalEdgeStyle;rounded=0;orthogonalLoop=1;jettySize=auto;html=1;exitX=0.5;exitY=0;exitDx=0;exitDy=0;entryX=0.5;entryY=0;entryDx=0;entryDy=0;startArrow=none;startFill=0;endArrow=none;endFill=0;" edge="1" parent="1" source="4" target="6">
                    <mxGeometry relative="1" as="geometry"/>
                </mxCell>
                <mxCell id="4" value="Station" style="rounded=0;whiteSpace=wrap;html=1;" parent="1" vertex="1">
                    <mxGeometry x="80" y="200" width="120" height="50" as="geometry"/>
                </mxCell>
                <mxCell id="G4ceK2faMUJjRU8Zbu4r-8" style="edgeStyle=orthogonalEdgeStyle;rounded=0;orthogonalLoop=1;jettySize=auto;html=1;exitX=0.5;exitY=0;exitDx=0;exitDy=0;startArrow=none;startFill=0;endArrow=none;endFill=0;" edge="1" parent="1" source="5">
                    <mxGeometry relative="1" as="geometry">
                        <mxPoint x="460" y="180" as="targetPoint"/>
                    </mxGeometry>
                </mxCell>
                <mxCell id="5" value="Airport" style="rounded=0;whiteSpace=wrap;html=1;" parent="1" vertex="1">
                    <mxGeometry x="400" y="200" width="120" height="50" as="geometry"/>
                </mxCell>
                <mxCell id="6" value="Cycleport" style="rounded=0;whiteSpace=wrap;html=1;" parent="1" vertex="1">
                    <mxGeometry x="560" y="200" width="120" height="50" as="geometry"/>
                </mxCell>
            </root>
        </mxGraphModel>
    </diagram>
    <diagram id="yWucDFDwl4BCm1UImfvO" name="Edge">
        <mxGraphModel dx="1691" dy="836" grid="1" gridSize="10" guides="1" tooltips="1" connect="1" arrows="1" fold="1" page="1" pageScale="1" pageWidth="1169" pageHeight="827" math="0" shadow="0">
            <root>
                <mxCell id="d-fJr6XjhbLxa3RFfIdi-0"/>
                <mxCell id="d-fJr6XjhbLxa3RFfIdi-1" parent="d-fJr6XjhbLxa3RFfIdi-0"/>
                <mxCell id="h7m_pS4_ZE677ggbOZEf-3" style="edgeStyle=orthogonalEdgeStyle;rounded=0;orthogonalLoop=1;jettySize=auto;html=1;exitX=0.5;exitY=1;exitDx=0;exitDy=0;startArrow=block;startFill=1;endArrow=none;endFill=0;" edge="1" parent="d-fJr6XjhbLxa3RFfIdi-1" source="IPz2DbqWtivo2FxIZu2Q-0">
                    <mxGeometry relative="1" as="geometry">
                        <mxPoint x="380" y="180" as="targetPoint"/>
                    </mxGeometry>
                </mxCell>
                <mxCell id="IPz2DbqWtivo2FxIZu2Q-0" value="Edge" style="rounded=0;whiteSpace=wrap;html=1;" vertex="1" parent="d-fJr6XjhbLxa3RFfIdi-1">
                    <mxGeometry x="320" y="70" width="120" height="50" as="geometry"/>
                </mxCell>
                <mxCell id="h7m_pS4_ZE677ggbOZEf-0" style="edgeStyle=orthogonalEdgeStyle;rounded=0;orthogonalLoop=1;jettySize=auto;html=1;exitX=0.5;exitY=0;exitDx=0;exitDy=0;entryX=0.5;entryY=0;entryDx=0;entryDy=0;startArrow=none;startFill=0;endArrow=none;endFill=0;" edge="1" parent="d-fJr6XjhbLxa3RFfIdi-1" source="IPz2DbqWtivo2FxIZu2Q-1" target="IPz2DbqWtivo2FxIZu2Q-4">
                    <mxGeometry relative="1" as="geometry"/>
                </mxCell>
                <mxCell id="IPz2DbqWtivo2FxIZu2Q-1" value="Railway" style="rounded=0;whiteSpace=wrap;html=1;" vertex="1" parent="d-fJr6XjhbLxa3RFfIdi-1">
                    <mxGeometry x="80" y="200" width="120" height="50" as="geometry"/>
                </mxCell>
                <mxCell id="h7m_pS4_ZE677ggbOZEf-1" style="edgeStyle=orthogonalEdgeStyle;rounded=0;orthogonalLoop=1;jettySize=auto;html=1;exitX=0.5;exitY=0;exitDx=0;exitDy=0;startArrow=none;startFill=0;endArrow=none;endFill=0;" edge="1" parent="d-fJr6XjhbLxa3RFfIdi-1" source="IPz2DbqWtivo2FxIZu2Q-2">
                    <mxGeometry relative="1" as="geometry">
                        <mxPoint x="300" y="180" as="targetPoint"/>
                    </mxGeometry>
                </mxCell>
                <mxCell id="IPz2DbqWtivo2FxIZu2Q-2" value="Busroute" style="rounded=0;whiteSpace=wrap;html=1;" vertex="1" parent="d-fJr6XjhbLxa3RFfIdi-1">
                    <mxGeometry x="240" y="200" width="120" height="50" as="geometry"/>
                </mxCell>
                <mxCell id="h7m_pS4_ZE677ggbOZEf-2" style="edgeStyle=orthogonalEdgeStyle;rounded=0;orthogonalLoop=1;jettySize=auto;html=1;exitX=0.5;exitY=0;exitDx=0;exitDy=0;startArrow=none;startFill=0;endArrow=none;endFill=0;" edge="1" parent="d-fJr6XjhbLxa3RFfIdi-1" source="IPz2DbqWtivo2FxIZu2Q-3">
                    <mxGeometry relative="1" as="geometry">
                        <mxPoint x="460" y="180" as="targetPoint"/>
                    </mxGeometry>
                </mxCell>
                <mxCell id="IPz2DbqWtivo2FxIZu2Q-3" value="Airway" style="rounded=0;whiteSpace=wrap;html=1;" vertex="1" parent="d-fJr6XjhbLxa3RFfIdi-1">
                    <mxGeometry x="400" y="200" width="120" height="50" as="geometry"/>
                </mxCell>
                <mxCell id="IPz2DbqWtivo2FxIZu2Q-4" value="Bicycleway" style="rounded=0;whiteSpace=wrap;html=1;" vertex="1" parent="d-fJr6XjhbLxa3RFfIdi-1">
                    <mxGeometry x="560" y="200" width="120" height="50" as="geometry"/>
                </mxCell>
            </root>
        </mxGraphModel>
    </diagram>
    <diagram id="nWdiK7tYzMT-CTHQEqTR" name="Graph">
        <mxGraphModel dx="1691" dy="836" grid="1" gridSize="10" guides="1" tooltips="1" connect="1" arrows="1" fold="1" page="1" pageScale="1" pageWidth="1169" pageHeight="827" math="0" shadow="0">
            <root>
                <mxCell id="6ZciiIgMk-thSf4t4G0T-0"/>
                <mxCell id="6ZciiIgMk-thSf4t4G0T-1" parent="6ZciiIgMk-thSf4t4G0T-0"/>
                <mxCell id="gKgLuxOpuXmqhT2fo6NS-1" style="edgeStyle=orthogonalEdgeStyle;rounded=0;orthogonalLoop=1;jettySize=auto;html=1;exitX=0.5;exitY=1;exitDx=0;exitDy=0;startArrow=block;startFill=1;endArrow=none;endFill=0;" edge="1" parent="6ZciiIgMk-thSf4t4G0T-1" source="G8YX736zn6huiUuAU-hF-1">
                    <mxGeometry relative="1" as="geometry">
                        <mxPoint x="180" y="150" as="targetPoint"/>
                    </mxGeometry>
                </mxCell>
                <mxCell id="G8YX736zn6huiUuAU-hF-1" value="Graph" style="rounded=0;whiteSpace=wrap;html=1;" vertex="1" parent="6ZciiIgMk-thSf4t4G0T-1">
                    <mxGeometry x="120" y="40" width="120" height="50" as="geometry"/>
                </mxCell>
                <mxCell id="gKgLuxOpuXmqhT2fo6NS-0" style="edgeStyle=orthogonalEdgeStyle;rounded=0;orthogonalLoop=1;jettySize=auto;html=1;exitX=0.5;exitY=0;exitDx=0;exitDy=0;entryX=0.5;entryY=0;entryDx=0;entryDy=0;startArrow=none;startFill=0;endArrow=none;endFill=0;" edge="1" parent="6ZciiIgMk-thSf4t4G0T-1" source="G8YX736zn6huiUuAU-hF-3" target="G8YX736zn6huiUuAU-hF-5">
                    <mxGeometry relative="1" as="geometry"/>
                </mxCell>
                <mxCell id="G8YX736zn6huiUuAU-hF-3" value="Operationrailway" style="rounded=0;whiteSpace=wrap;html=1;" vertex="1" parent="6ZciiIgMk-thSf4t4G0T-1">
                    <mxGeometry x="40" y="170" width="120" height="50" as="geometry"/>
                </mxCell>
                <mxCell id="G8YX736zn6huiUuAU-hF-5" value="Busroutepattern" style="rounded=0;whiteSpace=wrap;html=1;" vertex="1" parent="6ZciiIgMk-thSf4t4G0T-1">
                    <mxGeometry x="200" y="170" width="120" height="50" as="geometry"/>
                </mxCell>
            </root>
        </mxGraphModel>
    </diagram>
</mxfile>